<svg xmlns="http://www.w3.org/2000/svg" width="22" height="22"><g data-name="phone-call(4)"><g data-name="Group 5"><path data-name="Path 7" d="M18.777 3.22A11 11 0 1 0 22 11a11 11 0 0 0-3.223-7.78Zm-2.118 12.1-.557.554a2.933 2.933 0 0 1-2.768.792A9.747 9.747 0 0 1 10.5 15.4a13.079 13.079 0 0 1-2.233-1.8A13.179 13.179 0 0 1 6.6 11.573a10.266 10.266 0 0 1-1.254-2.537 2.933 2.933 0 0 1 .733-3l.653-.653a.466.466 0 0 1 .659 0l2.061 2.065a.466.466 0 0 1 0 .659l-1.21 1.21a.986.986 0 0 0-.1 1.283 14.151 14.151 0 0 0 1.448 1.69 14.064 14.064 0 0 0 1.907 1.6.994.994 0 0 0 1.269-.11l1.17-1.188a.466.466 0 0 1 .659 0l2.064 2.068a.466.466 0 0 1 0 .662Z"/></g></g></svg>