<svg xmlns="http://www.w3.org/2000/svg" width="42.002" height="42"><g data-name="Group 17" fill="#92553d"><path data-name="Path 45" d="M27.922 33.331a28.319 28.319 0 0 0 6.137-4.842.7.7 0 1 0-1.005-.975 26.9 26.9 0 0 1-5.832 4.605c-.265.153-.534.3-.8.448a20.43 20.43 0 0 0 1.345-4.871 79.589 79.589 0 0 0 9.8-7.293.7.7 0 1 0-.919-1.056 78.6 78.6 0 0 1-8.692 6.552c.029-.463.049-.93.049-1.4a.7.7 0 0 0-.7-.7h-.825q.066-.825.094-1.645a77.59 77.59 0 0 1 3.168-1.486.7.7 0 1 0-.564-1.281c-.876.386-1.737.791-2.587 1.2a17.302 17.302 0 0 0-.118-1.68.7.7 0 1 0-1.39.172 15.805 15.805 0 0 1 .122 1.918c0 .922-.05 1.861-.128 2.8h-3.374a.7.7 0 1 0 0 1.4h4.888c-.288 8.554-5.824 15.4-12.588 15.4a10.587 10.587 0 0 1-6.411-2.239.7.7 0 1 0-.846 1.116 11.97 11.97 0 0 0 7.256 2.528c4.669 0 8.809-2.875 11.354-7.28a55.22 55.22 0 0 0 2.566-1.391Z"/><path data-name="Path 46" d="M41.572 15.26a38.125 38.125 0 0 0-15.448-2.59l.86-.86 5.193-.472a.7.7 0 1 0-.126-1.394l-3.52.32 5.562-5.565a.7.7 0 1 0-.99-.99l-5.562 5.563.32-3.52a.7.7 0 0 0-1.394-.126l-.473 5.192-1.534 1.534a28.809 28.809 0 0 0-1.686-3.01l.14-2.627a.701.701 0 0 0-1.4-.074l-.043.813q-.415-.56-.834-1.086a3.669 3.669 0 0 1 2.214-2.7c.121-.048.243-.1.364-.14l.829 1.944a.7.7 0 0 0 1.336-.173l.022-.117a3.7 3.7 0 0 1 2.4-2.94l.693 1.732a.7.7 0 0 0 .594.438.69.69 0 0 0 .657-.337 5.427 5.427 0 0 1 4.47-2.645 32.628 32.628 0 0 1 2.178-.013c.011.3.011.7.011 1.192a5.512 5.512 0 0 1-2.649 4.649l-.514.309a.7.7 0 0 0 .1 1.25l2.31.923a3.71 3.71 0 0 1-.809 1.446.7.7 0 1 0 1.04.938 5.1 5.1 0 0 0 1.219-2.455l.044-.236a.7.7 0 0 0-.428-.776l-1.6-.641a6.938 6.938 0 0 0 2.684-5.4c.013-1.19-.038-1.9-.04-1.932a.7.7 0 0 0-.648-.648c-.047 0-1.168-.081-2.952-.016a6.813 6.813 0 0 0-4.834 2.261l-.457-1.142a.7.7 0 0 0-.783-.427 5.1 5.1 0 0 0-3.477 2.512l-.366-.859a.7.7 0 0 0-.876-.386q-.515.182-1.031.386a5.031 5.031 0 0 0-2.766 2.734A38.717 38.717 0 0 0 14.43.151a.7.7 0 0 0-.85 0c-.5.372-12.178 9.423-12.178 20.848 0 .155 0 .307.01.459l.008.257a.7.7 0 0 0 .7.685h.015a.7.7 0 0 0 .685-.715l-.008-.276c0-.135-.01-.269-.01-.409 0-6.248 3.9-11.884 7.186-15.521a39.516 39.516 0 0 0-1.616 3.249.7.7 0 1 0 1.282.56 38.856 38.856 0 0 1 2.755-5.148 80.865 80.865 0 0 0-1.849 14.039.7.7 0 0 0 .671.727h.029a.7.7 0 0 0 .7-.672 79.413 79.413 0 0 1 2.042-14.782c.4 1.667.9 4.069 1.317 6.947a.7.7 0 1 0 1.385-.2 80.003 80.003 0 0 0-1.438-7.491c2.608 2.39 7.5 7.517 9.27 13.727a.7.7 0 1 0 1.347-.383c-.183-.645-.4-1.275-.639-1.89a31.815 31.815 0 0 1 9.894.658 38.264 38.264 0 0 0-6.6.685.7.7 0 1 0 .268 1.373 37.843 37.843 0 0 1 8.7-.624c-1.506.474-3.4 1.12-5.556 1.978a.7.7 0 1 0 .517 1.3 75.883 75.883 0 0 1 7.657-2.59 38.741 38.741 0 0 1-4.825 8.009.7.7 0 1 0 1.1.866 39.045 39.045 0 0 0 2.775-4.034c-1.506 4.655-4.437 10.85-9.846 13.973a33.133 33.133 0 0 1-4.926 2.334.7.7 0 1 0 .49 1.311 34.516 34.516 0 0 0 5.132-2.432c9.892-5.713 11.891-20.352 11.972-20.97a.7.7 0 0 0-.424-.739Z"/><path data-name="Path 47" d="M21.703 21.7a.7.7 0 0 0 .7-.7 31.116 31.116 0 0 0-3.36-13.543.7.7 0 1 0-1.26.61A29.728 29.728 0 0 1 21.003 21a.7.7 0 0 0 .7.7Z"/><path data-name="Path 48" d="M7.002 21.002a26.563 26.563 0 0 1 .868-6.6.7.7 0 1 0-1.356-.35 27.954 27.954 0 0 0-.912 6.95.7.7 0 1 0 1.4 0Z"/><path data-name="Path 49" d="M1.414 25.2h17.489a.7.7 0 0 0 0-1.4h-1.429c.017-.917.029-1.848.029-2.8a75.024 75.024 0 0 0-.5-8.48.7.7 0 0 0-1.392.16 73.5 73.5 0 0 1 .492 8.32c0 .952-.011 1.883-.029 2.8h-4.143c-.018-.917-.029-1.848-.029-2.8a.7.7 0 1 0-1.4 0c0 .952.011 1.883.029 2.8H.703a.7.7 0 0 0-.7.7 19.758 19.758 0 0 0 4.593 12.965.7.7 0 0 0 1.05-.925A18.2 18.2 0 0 1 1.414 25.2Z"/><circle data-name="Ellipse 2" cx=".7" cy=".7" r=".7" transform="translate(20.303 31.5)"/><circle data-name="Ellipse 3" cx=".7" cy=".7" r=".7" transform="translate(11.202 37.1)"/><circle data-name="Ellipse 4" cx=".7" cy=".7" r=".7" transform="translate(7.002 33.6)"/><circle data-name="Ellipse 5" cx=".7" cy=".7" r=".7" transform="translate(14.003 26.6)"/><circle data-name="Ellipse 6" cx=".7" cy=".7" r=".7" transform="translate(7.702 29.4)"/><circle data-name="Ellipse 7" cx=".7" cy=".7" r=".7" transform="translate(3.502 28)"/><circle data-name="Ellipse 8" cx=".7" cy=".7" r=".7" transform="translate(16.103 33.6)"/><circle data-name="Ellipse 9" cx=".7" cy=".7" r=".7" transform="translate(21.703 28)"/></g></svg>