<svg xmlns="http://www.w3.org/2000/svg" width="41.994" height="42"><path data-name="sunflower-seed(1)" d="m41.135 5.093-.012-.015c-.005-.005-.01-.007-.015-.011a2.1 2.1 0 0 0-1.225-.589c-3-.35-10.654-.84-17.8 1.86A44.7 44.7 0 0 0 16 .455a2.091 2.091 0 0 0-2.6 0C10.254 2.941 0 11.97 0 23.646c0 10.121 6.595 18.355 14.7 18.355a12.894 12.894 0 0 0 8.984-3.842 21.108 21.108 0 0 0 11.111-5.968c8.247-8.247 7.388-21.889 6.924-25.876a2.1 2.1 0 0 0-.584-1.222Zm-3.1.619a53.075 53.075 0 0 0-11.879 6.416 35.311 35.311 0 0 0-3.136-4.645 37.916 37.916 0 0 1 15.012-1.77Zm1.51.946A51.815 51.815 0 0 1 29.4 23.64a22.969 22.969 0 0 0-2.59-10.266 51.648 51.648 0 0 1 12.732-6.715ZM1.4 23.646c0-9.76 7.682-17.649 11.555-21A52.513 52.513 0 0 0 8.4 23.801c0 6.485 1.194 13.264 3.451 16.4C5.88 38.536 1.4 31.748 1.4 23.646Zm13.3 16.955c-2.318 0-4.9-6.9-4.9-16.8a51.6 51.6 0 0 1 4.9-21.56 51.6 51.6 0 0 1 4.9 21.56c0 9.9-2.583 16.8-4.9 16.8Zm2.849-.4C19.805 37.064 21 30.285 21 23.801a52.517 52.517 0 0 0-4.555-21.159C20.319 6.001 28 13.887 28 23.646c0 8.102-4.48 14.89-10.451 16.555Zm16.256-9a20.214 20.214 0 0 1-8.5 5.134 20.469 20.469 0 0 0 3.989-10.534 52.6 52.6 0 0 0 11.193-17.62c.363 5.12.213 16.129-6.682 23.02Z" fill="#92553d"/></svg>