<svg xmlns="http://www.w3.org/2000/svg" width="47.779" height="42.516"><g fill="#92553d" stroke="#fff" stroke-width=".5"><path data-name="Path 20" d="M11.061 34.848h-.47a.985.985 0 0 0-.985.985 6.44 6.44 0 0 0 6.433 6.433h15.7a6.44 6.44 0 0 0 6.432-6.433.985.985 0 0 0-.985-.985h-.47a21.9 21.9 0 0 0 10.79-14.537.985.985 0 0 0-.967-1.174H43.2a5.809 5.809 0 0 0 1.4-4.551c-.561-3.386-4.585-5.637-9.759-5.6.09-3.824-4.254-7.46-10.306-8.466C18.116-.542 12.557 1.812 11.88 5.883a5.371 5.371 0 0 0 .69 3.514c-5.953 1.264-10.035 5.1-9.4 8.992a4.971 4.971 0 0 0 .2.747H1.238a.985.985 0 0 0-.967 1.174 21.9 21.9 0 0 0 10.79 14.538Zm20.68 5.448h-15.7a4.471 4.471 0 0 1-4.353-3.478h24.406a4.47 4.47 0 0 1-4.353 3.478Zm10.92-25.393c.224 1.39-.584 2.92-2.224 4.234H24.053c-.032-.052-.063-.1-.089-.153a2.938 2.938 0 0 1-.309-1.9c.589-3.571 6.3-5.81 10.1-6.086h.011c4.651-.35 8.467 1.335 8.894 3.907Zm-28.834-8.7c.479-2.885 5.237-4.6 10.39-3.745 5 .83 8.869 3.83 8.656 6.64h-.025a16.893 16.893 0 0 0-7.96 3l-.023-.023C22.621 9.453 18.28 8.74 14.823 9.048c-.044 0-.086 0-.131.006a3.754 3.754 0 0 1-.866-2.854Zm-8.709 11.86c-.606-3.712 5.227-6.486 9.235-6.981l.052-.005c2.946-.372 7.194.08 9.019 2.355l-.169.195a5.811 5.811 0 0 0-1.55 4.763 5.06 5.06 0 0 0 .19.747H5.529a3.007 3.007 0 0 1-.411-1.074Zm40.184 3.044a20.7 20.7 0 0 1-13.256 13.741H15.732a21.716 21.716 0 0 1-10.537-7.949h1.378a.985.985 0 0 0 0-1.97H3.995a18.263 18.263 0 0 1-1.518-3.822Z"/><path data-name="Path 21" d="M9.525 26.899h2.955a.985.985 0 1 0 0-1.97H9.525a.985.985 0 1 0 0 1.97Z"/><path data-name="Path 22" d="M21.344 26.899h2.955a.985.985 0 1 0 0-1.97h-2.955a.985.985 0 1 0 0 1.97Z"/><path data-name="Path 23" d="M15.435 26.899h2.955a.985.985 0 1 0 0-1.97h-2.955a.985.985 0 1 0 0 1.97Z"/><path data-name="Path 24" d="M33.162 26.899h2.955a.985.985 0 1 0 0-1.97h-2.955a.985.985 0 1 0 0 1.97Z"/><path data-name="Path 25" d="M27.253 26.899h2.955a.985.985 0 1 0 0-1.97h-2.955a.985.985 0 1 0 0 1.97Z"/><path data-name="Path 26" d="M39.071 26.899h2.955a.985.985 0 1 0 0-1.97h-2.955a.985.985 0 1 0 0 1.97Z"/><path data-name="Path 27" d="M21.016 6.771a1.686 1.686 0 0 1 1.426-.051 7.055 7.055 0 0 1 1.764 1.087l.916.692a.987.987 0 1 0 1.186-1.577l-.915-.691a8.639 8.639 0 0 0-2.295-1.372 3.611 3.611 0 0 0-3.162.261.985.985 0 0 0 1.08 1.648Z"/><path data-name="Path 28" d="M33.035 17.127a.986.986 0 0 0 1.359.3c.3-.189 1 .008 1.293.091a5.878 5.878 0 0 0 1.6.286 2.654 2.654 0 0 0 1.214-.276 3.688 3.688 0 0 0 .952-.75l.552-.554a.985.985 0 0 0-1.395-1.391l-.554.556a2.193 2.193 0 0 1-.441.379 2.415 2.415 0 0 1-1.39-.147 3.538 3.538 0 0 0-2.884.141.985.985 0 0 0-.3 1.359Z"/><path data-name="Path 29" d="M32.869 13.261a.984.984 0 0 0-1.393 0l-.35.351a2.192 2.192 0 0 1-.18.17 2.148 2.148 0 0 1-.625-.115 2.6 2.6 0 0 0-2.116.133.994.994 0 0 0-.314 1.365.973.973 0 0 0 1.348.308 1.3 1.3 0 0 1 .547.09 4.057 4.057 0 0 0 1.111.194 2.034 2.034 0 0 0 .93-.214 2.685 2.685 0 0 0 .694-.541l.35-.352a.984.984 0 0 0 0-1.393Z"/><path data-name="Path 30" d="M18.409 14.431a5.373 5.373 0 0 1-3.342 1.439.985.985 0 0 0 .11 1.967 7.377 7.377 0 0 0 4.585-1.974.985.985 0 0 0-1.353-1.432Z"/><path data-name="Path 31" d="M14.297 14.448a1.922 1.922 0 0 0-2.134-1.208 3.665 3.665 0 0 0-1.569.733l-1.4.988a.985.985 0 1 0 1.128 1.611l1.4-.988a1.882 1.882 0 0 1 .756-.382.985.985 0 0 0 1.813-.754Z"/></g></svg>