<svg xmlns="http://www.w3.org/2000/svg" width="44.241" height="42"><g data-name="Group 12"><g data-name="Group 11"><path data-name="Path 42" d="M34.516 17.761c-.118 0-.239 0-.361.007a9.743 9.743 0 0 0-4.219-2.553c.365-3.813-1.322-7.461-2.991-10.05a.661.661 0 0 0-1.111.718c1.525 2.364 3.066 5.657 2.8 9.042a9.691 9.691 0 0 0-5.58.805v-1.184l3.18-3.18a.68.68 0 0 0 .034-.94.662.662 0 0 0-.95-.015l-2.264 2.264V9.134a.68.68 0 0 0-.641-.689.661.661 0 0 0-.682.661v3.571l-2.264-2.264a.661.661 0 0 0-.935.935l3.2 3.2v1.937a9.8 9.8 0 0 0-2.912 3.083 11.352 11.352 0 0 0-2.525-7l-.049-.058c.76-5.047 4.79-9.53 6.149-10.918.353.359.885.925 1.489 1.651a.661.661 0 0 0 .919.094.662.662 0 0 0 .1-.943A24.894 24.894 0 0 0 22.846.177a.661.661 0 0 0-.9 0c-.237.218-5.466 5.088-6.828 11.17a17.8 17.8 0 0 0-8.561-3.874 27.987 27.987 0 0 0-5.916-.522.661.661 0 0 0-.633.633 28 28 0 0 0 .522 5.913c.838 4.314 2.6 7.681 5.094 9.737a10.8 10.8 0 0 0 .932.686 26.718 26.718 0 0 0-6.5 8.628.661.661 0 0 0 .283.849 26.1 26.1 0 0 0 11.182 3.02 14.9 14.9 0 0 0 2.426-.193 9.723 9.723 0 0 0 17.53.5 9.746 9.746 0 0 0 7.877-.805.662.662 0 0 0-.671-1.14 8.412 8.412 0 0 1-6.678.724A9.723 9.723 0 0 0 27.1 23.534a8.367 8.367 0 0 1 6.829-4.43c.2-.013.4-.02.588-.02a8.4 8.4 0 0 1 6.618 13.579.663.663 0 0 0 .072.9.663.663 0 0 0 .969-.085 9.726 9.726 0 0 0-7.66-15.718ZM6.469 22.217c-2.843-2.342-4.09-6.155-4.634-8.941a28.271 28.271 0 0 1-.51-5.012 28.21 28.21 0 0 1 4.98.5c5.064.984 7.673 3.065 8.969 4.637 2.025 2.456 2.674 5.752 1.938 9.81l-2.022-2.017v-5.876a.662.662 0 0 0-1.323 0v4.553l-2.912-2.912v-4.525a.662.662 0 1 0-1.323 0v3.2l-2.525-2.523a.661.661 0 0 0-.935.935L8.7 16.572H5.5a.662.662 0 1 0 0 1.323h4.52l2.912 2.912H8.378a.662.662 0 1 0 0 1.323h5.876l2.022 2.022c-4.056.736-7.351.087-9.807-1.935Zm4.931 6.317-3.976-1.983a.661.661 0 0 0-.591 1.183l2.794 1.4-4.57 1.525a.662.662 0 1 0 .419 1.255l4.676-1.56-1.467 2.931a.661.661 0 1 0 1.183.591l2.058-4.119 1.685-.562a9.739 9.739 0 0 0-.123 5.763c-4.93.708-10.239-1.6-11.944-2.433a25.008 25.008 0 0 1 6.252-7.9 12.3 12.3 0 0 0 5.393 1.148 17.976 17.976 0 0 0 2.61-.2 9.78 9.78 0 0 0-1.465 1.99Zm19.839 3.74a8.4 8.4 0 1 1-8.4-8.4 8.412 8.412 0 0 1 8.4 8.4Zm-5.371-9.24a9.723 9.723 0 0 0-7.02.371 8.4 8.4 0 0 1 13.584-5.42 9.684 9.684 0 0 0-6.564 5.049Z" fill="#92553d"/></g></g><g data-name="Group 14"><g data-name="Group 13"><path data-name="Path 43" d="M25.364 29.591a3.065 3.065 0 1 0 3.065 3.065 3.069 3.069 0 0 0-3.065-3.065Zm0 4.807a1.742 1.742 0 1 1 1.742-1.742 1.744 1.744 0 0 1-1.742 1.742Z" fill="#92553d"/></g></g><g data-name="Group 16"><g data-name="Group 15"><path data-name="Path 44" d="M34.34 20.365c-1.982 0-3.477.9-3.477 2.1s1.495 2.1 3.477 2.1 3.477-.9 3.477-2.1-1.495-2.1-3.477-2.1Zm1.69 2.527a4.27 4.27 0 0 1-3.38 0c-.34-.174-.464-.351-.464-.427s.124-.254.464-.427a4.27 4.27 0 0 1 3.38 0c.34.174.464.351.464.427s-.123.253-.464.427Z" fill="#92553d"/></g></g></svg>