<svg xmlns="http://www.w3.org/2000/svg" width="19.148" height="22"><path data-name="share(1)" d="M15.547 14.8a3.593 3.593 0 0 0-2.663 1.179l-5.929-3.673a3.587 3.587 0 0 0 0-2.611l5.929-3.672a3.6 3.6 0 1 0-.692-1.116L6.263 8.579a3.6 3.6 0 1 0 0 4.843l5.928 3.672a3.6 3.6 0 1 0 3.355-2.3ZM13.259 3.6a2.288 2.288 0 1 1 2.288 2.288A2.291 2.291 0 0 1 13.259 3.6ZM3.6 13.288A2.288 2.288 0 1 1 5.888 11 2.291 2.291 0 0 1 3.6 13.288Zm9.659 5.112a2.288 2.288 0 1 1 2.288 2.288 2.291 2.291 0 0 1-2.288-2.288Zm0 0" fill="#92553d"/></svg>